# xmcd
# Track frame offsets:
# 150
# 14045
# 29677
# 52642
#
# Disc length: 1027 seconds
# Revision: 0
# Processed by: cddbd v1.4PL0 Copyright (c) Steve Scherf et al.
# Submitted via: VisiTrax 2.9.5.180 - For more info visit www.synapsa.com
#
DISCID=2b040104
DTITLE=Van Halen - Arena Jump (2003)
DYEAR=2003
DGENRE=Fodboldmusik
TTITLE0=Jump - New radio edit
TTITLE1=Jump - Original radio edit
TTITLE2=Jump - New club mix
TTITLE3=Jump - Original club mix
EXTD=
EXTT0=
EXTT1=
EXTT2=
EXTT3=
PLAYORDER=
